<?xml version="1.0" encoding="UTF-8" standalone="no"?>
<svg
   width="46"
   height="60"
   viewBox="0 0 46 60"
   fill="none"
   version="1.1"
   id="svg3"
   sodipodi:docname="AllDrinks.svg"
   inkscape:export-filename="../Ãrea de Trabalho/AllDrinks.svg"
   inkscape:export-xdpi="1060.0657"
   inkscape:export-ydpi="1060.0657"
   inkscape:version="1.3 (0e150ed6c4, 2023-07-21)"
   xmlns:inkscape="http://www.inkscape.org/namespaces/inkscape"
   xmlns:sodipodi="http://sodipodi.sourceforge.net/DTD/sodipodi-0.dtd"
   xmlns="http://www.w3.org/2000/svg"
   xmlns:svg="http://www.w3.org/2000/svg">
  <defs
     id="defs3" />
  <sodipodi:namedview
     id="namedview3"
     pagecolor="#505050"
     bordercolor="#ffffff"
     borderopacity="1"
     inkscape:showpageshadow="0"
     inkscape:pageopacity="0"
     inkscape:pagecheckerboard="1"
     inkscape:deskcolor="#505050"
     inkscape:zoom="7.84"
     inkscape:cx="23.022959"
     inkscape:cy="29.97449"
     inkscape:window-width="1366"
     inkscape:window-height="704"
     inkscape:window-x="0"
     inkscape:window-y="27"
     inkscape:window-maximized="1"
     inkscape:current-layer="svg3" />
  <rect
     x="0.905605"
     y="0.905605"
     width="43.469"
     height="43.469"
     rx="21.7345"
     stroke="#FCC436"
     stroke-width="1.81121"
     id="rect1" />
  <path
     d="M22.1771 25.355V32.9695H17.6653H17.5627V33.072V35.1229V35.2254H17.6653H28.9449H29.0474V35.1229V33.072V32.9695H28.9449H24.433V25.355L35.6859 13.0304L35.7127 13.0011V12.9613V10V9.89746H35.6102H11H10.8975V10V12.9613V13.0011L10.9243 13.0304L22.1771 25.355ZM13.1783 12.1534H33.4318L30.3422 15.5373H16.268L13.1783 12.1534ZM18.3277 17.7932H28.2824L23.3202 23.228H23.2899L18.3277 17.7932Z"
     fill="#FCC436"
     stroke="#FCC436"
     stroke-width="0.205085"
     id="path2" />
  <path
     d="M23.3051 26.4067L16.2008 17.1779L30.4094 17.1779L23.3051 26.4067Z"
     fill="#FCC436"
     id="path3" />
</svg>
