<?xml version="1.0" encoding="UTF-8" standalone="no"?>
<svg
   width="46"
   height="60"
   viewBox="0 0 46 60"
   fill="none"
   version="1.1"
   id="svg11"
   sodipodi:docname="beef.svg"
   xmlns:inkscape="http://www.inkscape.org/namespaces/inkscape"
   xmlns:sodipodi="http://sodipodi.sourceforge.net/DTD/sodipodi-0.dtd"
   xmlns="http://www.w3.org/2000/svg"
   xmlns:svg="http://www.w3.org/2000/svg">
  <defs
     id="defs11" />
  <sodipodi:namedview
     id="namedview11"
     pagecolor="#505050"
     bordercolor="#ffffff"
     borderopacity="1"
     inkscape:showpageshadow="0"
     inkscape:pageopacity="0"
     inkscape:pagecheckerboard="1"
     inkscape:deskcolor="#505050" />
  <rect
     x="0.90560502"
     y="0.90560502"
     width="43.469002"
     height="43.469002"
     rx="21.734501"
     stroke="#fcc436"
     stroke-width="1.81121"
     id="rect1" />
  <path
     d="m 17.587,21.7288 c 0,0 -1.4928,-0.1072 -1.8754,-0.4898 -0.3826,-0.3826 -0.3826,-1.0029 0,-1.3855 0.3826,-0.3826 1.0029,-0.3826 1.3855,0 0.3826,0.3826 0.4899,1.8753 0.4899,1.8753 z"
     fill="#fcc436"
     id="path2" />
  <mask
     id="path-4-outside-1_13_135"
     maskUnits="userSpaceOnUse"
     x="9.13385"
     y="6.96164"
     width="27"
     height="16"
     fill="#000000">
    <rect
       fill="#ffffff"
       x="9.1338501"
       y="6.9616399"
       width="27"
       height="16"
       id="rect2" />
    <path
       d="m 14.3821,19.3657 0.9982,-4.5301 c 0,0 -3.7624,-0.3072 -3.1865,-3.6472 0,0 4.8757,1.6125 6.2577,0.2304 0,0 3.0555,-3.2645 7.9335,-0.0211 1.6275,1.0823 6.2577,-0.2303 6.2577,-0.2303 0.5759,3.34 -3.1865,3.6471 -3.1865,3.6471 l 0.9982,4.5302"
       id="path3" />
  </mask>
  <path
     d="m 11.7289,18.7811 c -0.3228,1.4653 0.6033,2.9149 2.0686,3.2378 1.4653,0.3228 2.9149,-0.6033 3.2378,-2.0686 z m 3.6514,-3.9455 2.6532,0.5846 c 0.1688,-0.7662 -0.0018,-1.5679 -0.468,-2.1989 -0.4661,-0.631 -1.1823,-1.0297 -1.9642,-1.0935 z m -3.1865,-3.6472 0.853,-2.57939 C 12.2961,8.36072 11.4743,8.45186 10.7962,8.85866 10.1181,9.26546 9.65085,9.94753 9.51649,10.7268 Z m 6.2577,0.2304 1.9212,1.921 c 0.0211,-0.0212 0.0419,-0.0427 0.0624,-0.0645 z m 7.9335,-0.0211 1.5043,-2.26229 -10e-5,-2e-5 z M 32.6427,11.1674 35.32,10.7058 C 35.1891,9.94667 34.7421,9.27879 34.0902,8.86835 33.4384,8.45791 32.6429,8.3435 31.9017,8.5536 Z m -3.1865,3.6471 -0.221,-2.7078 c -0.7819,0.0639 -1.4981,0.4626 -1.9642,1.0936 -0.4661,0.631 -0.6368,1.4327 -0.4679,2.1988 z m -1.655,5.1148 c 0.3229,1.4653 1.7725,2.3914 3.2378,2.0686 1.4653,-0.3229 2.3914,-1.7725 2.0686,-3.2378 z m -10.7659,0.021 0.9982,-4.5301 -5.3064,-1.1692 -0.9982,4.5301 z m -1.655,-5.1147 c 0.221,-2.7078 0.2222,-2.7077 0.2234,-2.7077 3e-4,10e-5 0.0015,2e-4 0.0022,2e-4 0.0015,2e-4 0.0029,3e-4 0.0043,4e-4 0.0027,2e-4 0.0053,5e-4 0.0076,7e-4 0.0047,4e-4 0.0087,7e-4 0.0118,10e-4 0.0064,7e-4 0.0098,10e-4 0.0104,0.0011 0.0012,10e-5 -0.008,-9e-4 -0.0261,-0.0035 -0.037,-0.0055 -0.1043,-0.0168 -0.1895,-0.0368 -0.1865,-0.044 -0.3725,-0.1097 -0.5096,-0.1878 -0.1325,-0.0753 -0.1166,-0.1021 -0.0807,-0.0362 0.0564,0.1033 -0.016,0.0907 0.037,-0.217 L 9.51649,10.7268 c -0.23488,1.3623 -0.05293,2.6407 0.54681,3.7409 0.5795,1.0629 1.428,1.7392 2.1641,2.1581 0.7315,0.4162 1.4501,0.636 1.951,0.754 0.2586,0.0609 0.4807,0.0997 0.6471,0.1241 0.0838,0.0123 0.1548,0.0211 0.2108,0.0274 0.0281,0.0031 0.0525,0.0056 0.0731,0.0076 0.0102,10e-4 0.0196,0.0019 0.0279,0.0026 0.0041,4e-4 0.008,7e-4 0.0117,0.001 0.0018,2e-4 0.0036,3e-4 0.0053,5e-4 9e-4,0 0.0021,10e-5 0.0025,2e-4 0.0012,10e-5 0.0024,2e-4 0.2235,-2.7076 z m -3.1865,-3.6472 c -0.853,2.5794 -0.8526,2.5796 -0.8521,2.5797 2e-4,10e-5 6e-4,3e-4 0.001,4e-4 7e-4,2e-4 0.0015,5e-4 0.0024,8e-4 0.0018,6e-4 0.0038,0.0012 0.0062,0.002 0.0047,0.0015 0.0106,0.0035 0.0176,0.0058 0.0141,0.0045 0.0329,0.0106 0.0561,0.018 0.0463,0.0147 0.1104,0.0348 0.1901,0.0591 0.1591,0.0484 0.3822,0.1139 0.6523,0.187 0.5342,0.1446 1.2801,0.3264 2.0934,0.461 0.7916,0.1311 1.7621,0.2373 2.7097,0.1745 0.8459,-0.0561 2.2439,-0.2786 3.3022,-1.3369 L 16.5304,9.49771 C 16.8977,9.13047 17.1679,9.22469 16.711,9.25499 16.3556,9.27855 15.8481,9.24085 15.248,9.14154 14.6696,9.0458 14.1102,8.91087 13.6871,8.79633 13.4784,8.73987 13.3098,8.69024 13.1969,8.65588 13.1406,8.63874 13.0986,8.62553 13.0728,8.61733 13.0599,8.61324 13.0512,8.6104 13.0468,8.60897 13.0445,8.60825 13.0434,8.60788 13.0434,8.60789 c 0,0 3e-4,9e-5 9e-4,2.8e-4 3e-4,9e-5 6e-4,2.1e-4 10e-4,3.5e-4 3e-4,7e-5 6e-4,1.9e-4 7e-4,2.3e-4 4e-4,1.3e-4 8e-4,2.6e-4 -0.8522,2.57965 z m 6.2577,0.2304 c 1.9836,1.8565 1.9824,1.8577 1.9813,1.859 -4e-4,3e-4 -0.0016,0.0016 -0.0023,0.0024 -0.0015,0.0015 -0.0029,0.0031 -0.0043,0.0045 -0.0028,0.003 -0.0055,0.0058 -0.008,0.0084 -0.005,0.0053 -0.0094,0.0098 -0.0132,0.0137 -0.0076,0.0078 -0.0127,0.0129 -0.0156,0.0157 -0.0056,0.0055 -0.002,0.0017 0.0103,-0.0092 0.0251,-0.0224 0.0826,-0.0713 0.1696,-0.1326 0.1777,-0.125 0.4496,-0.2816 0.798,-0.3858 0.5809,-0.1737 1.7301,-0.3205 3.5134,0.8652 L 27.8892,9.13539 C 24.7945,7.07767 21.977,6.94132 19.8108,7.58899 18.7856,7.89551 17.9887,8.35233 17.441,8.73798 c -0.2756,0.19409 -0.4949,0.37488 -0.656,0.51838 -0.0807,0.07197 -0.1476,0.13523 -0.2003,0.18695 -0.0264,0.02588 -0.0494,0.04896 -0.0688,0.06887 -0.0097,0.00996 -0.0186,0.01913 -0.0265,0.02749 -0.004,0.00418 -0.0078,0.00815 -0.0114,0.01191 -0.0017,0.00188 -0.0035,0.00371 -0.0051,0.00548 -9e-4,8.9e-4 -0.0021,0.00219 -0.0025,0.00263 -0.0012,0.00128 -0.0024,0.00254 1.9811,1.85911 z m 6.4292,2.2413 c 1.0333,0.687 2.2361,0.8367 3.0494,0.8724 0.8952,0.0394 1.8092,-0.0456 2.5753,-0.1541 0.7802,-0.1106 1.4901,-0.2579 1.9999,-0.3757 0.2571,-0.0594 0.4688,-0.1125 0.6195,-0.1518 0.0755,-0.0196 0.1361,-0.0359 0.1798,-0.0478 0.0218,-0.0059 0.0395,-0.0108 0.0528,-0.0145 0.0066,-0.0018 0.0121,-0.0034 0.0165,-0.0046 0.0022,-6e-4 0.0041,-0.0012 0.0058,-0.0016 8e-4,-3e-4 0.0015,-5e-4 0.0022,-7e-4 3e-4,-1e-4 8e-4,-2e-4 9e-4,-2e-4 5e-4,-10e-5 9e-4,-3e-4 -0.7401,-2.6141 -0.741,-2.6138 -0.7406,-2.61391 -0.7402,-2.61401 10e-5,-3e-5 4e-4,-1.3e-4 6e-4,-1.8e-4 4e-4,-1.1e-4 7e-4,-2e-4 0.001,-2.7e-4 5e-4,-1.5e-4 7e-4,-2.1e-4 7e-4,-2e-4 -1e-4,2e-5 -0.0012,3.4e-4 -0.0034,9.5e-4 C 31.897,8.5549 31.8885,8.55726 31.876,8.56065 31.8511,8.56744 31.8106,8.57834 31.7563,8.59247 31.6475,8.62078 31.4847,8.66173 31.2824,8.70848 30.8731,8.803 30.3237,8.91618 29.743,8.99847 29.1481,9.08278 28.5994,9.12305 28.1687,9.10412 27.656,9.0816 27.6698,8.98945 27.8893,9.13541 Z m 5.0847,-2.0311 c 0.053,0.3077 -0.0193,0.3203 0.037,0.217 0.0359,-0.0659 0.0518,-0.0392 -0.0807,0.0362 -0.1371,0.078 -0.3231,0.1438 -0.5096,0.1878 -0.0852,0.02 -0.1525,0.0313 -0.1895,0.0368 -0.0181,0.0026 -0.0273,0.0036 -0.0261,0.0035 6e-4,-10e-5 0.004,-5e-4 0.0104,-0.0011 0.0031,-3e-4 0.0071,-6e-4 0.0118,-0.0011 0.0023,-2e-4 0.0049,-4e-4 0.0076,-6e-4 0.0014,-10e-5 0.0028,-3e-4 0.0043,-4e-4 7e-4,0 0.0019,-1e-4 0.0023,-2e-4 0.0011,-10e-5 0.0023,-2e-4 0.2233,2.7076 0.2211,2.7079 0.2223,2.7078 0.2235,2.7077 4e-4,-1e-4 0.0016,-2e-4 0.0025,-3e-4 0.0017,-10e-5 0.0035,-2e-4 0.0053,-4e-4 0.0037,-3e-4 0.0076,-6e-4 0.0117,-0.001 0.0083,-8e-4 0.0177,-0.0016 0.0279,-0.0026 0.0206,-0.002 0.045,-0.0045 0.0731,-0.0076 0.056,-0.0063 0.1271,-0.0151 0.2108,-0.0274 0.1664,-0.0244 0.3886,-0.0632 0.6471,-0.1241 0.5009,-0.118 1.2195,-0.3378 1.951,-0.7541 0.7362,-0.4189 1.5846,-1.0951 2.1641,-2.158 0.5997,-1.1003 0.7817,-2.3786 0.5468,-3.7409 z m -3.1623,3.7701 0.9981,4.5302 5.3064,-1.1692 -0.9982,-4.5302 z"
     fill="#fcc436"
     mask="url(#path-4-outside-1_13_135)"
     id="path4" />
  <path
     d="m 18.7238,29.0474 h 7.7037 c 0.1332,0 0.2608,0.0558 0.3469,0.1574 0.4147,0.4895 1.5402,2.1295 1.0259,5.0438 -0.09,0.5097 -0.5705,0.8533 -1.0795,0.7594 -1.7027,-0.3138 -5.5471,-0.8764 -8.2095,-0.1598 -0.5417,0.1458 -1.0809,-0.2224 -1.1478,-0.7793 -0.148,-1.2303 -0.1547,-3.2469 0.9847,-4.8339 0.0858,-0.1195 0.2286,-0.1876 0.3756,-0.1876 z"
     fill="#fcc436"
     id="path5" />
  <path
     d="m 19.402,31.1425 c 0,0 -0.3362,1.3986 1.5449,1.4333"
     stroke="#ffffff"
     stroke-width="0.905605"
     stroke-miterlimit="10"
     stroke-linecap="round"
     stroke-linejoin="round"
     id="path6" />
  <path
     d="m 19.0399,36.6236 c 0,0 3.1096,3.8775 6.7568,0.1536"
     stroke="#fcc436"
     stroke-width="2.71681"
     stroke-miterlimit="10"
     stroke-linecap="round"
     stroke-linejoin="round"
     id="path7" />
  <path
     d="m 13.3527,16.387 c -1.501,-0.959 -3.61465,-2.2471 -6.09143,-1.6374 0,0 -0.72944,6.872 7.52463,7.6015 l 0.5943,0.4315 c 0,0 -1.122,4.3684 0.6181,7.8875"
     stroke="#fcc436"
     stroke-width="2.71681"
     stroke-miterlimit="10"
     stroke-linecap="round"
     stroke-linejoin="round"
     id="path8" />
  <path
     d="m 27.2495,21.7065 c 0,0 1.4928,-0.1073 1.8754,-0.4898 0.3826,-0.3826 0.3826,-1.003 0,-1.3855 -0.3826,-0.3826 -1.003,-0.3826 -1.3855,0 -0.3826,0.3825 -0.4899,1.8753 -0.4899,1.8753 z"
     fill="#fcc436"
     id="path9" />
  <path
     d="m 25.9242,31.1215 c 0,0 0.3363,1.3985 -1.5449,1.4333"
     stroke="#ffffff"
     stroke-width="0.905605"
     stroke-miterlimit="10"
     stroke-linecap="round"
     stroke-linejoin="round"
     id="path10" />
  <path
     d="m 31.6029,16.291 c 1.4928,-0.9248 3.5604,-2.1562 5.9723,-1.5624 0,0 0.7294,6.872 -7.5246,7.6014 l -0.5944,0.4316 c 0,0 1.2434,3.9076 -0.4967,7.4268"
     stroke="#fcc436"
     stroke-width="2.71681"
     stroke-miterlimit="10"
     stroke-linecap="round"
     stroke-linejoin="round"
     id="path11" />
</svg>
