<?xml version="1.0" encoding="UTF-8" standalone="no"?>
<svg
   width="54"
   height="60"
   viewBox="0 0 54 60"
   fill="none"
   version="1.1"
   id="svg4"
   sodipodi:docname="breakfast.svg"
   inkscape:export-filename="breakfast.png"
   inkscape:export-xdpi="96"
   inkscape:export-ydpi="96"
   xmlns:inkscape="http://www.inkscape.org/namespaces/inkscape"
   xmlns:sodipodi="http://sodipodi.sourceforge.net/DTD/sodipodi-0.dtd"
   xmlns="http://www.w3.org/2000/svg"
   xmlns:svg="http://www.w3.org/2000/svg">
  <defs
     id="defs4" />
  <sodipodi:namedview
     id="namedview4"
     pagecolor="#505050"
     bordercolor="#ffffff"
     borderopacity="1"
     inkscape:showpageshadow="0"
     inkscape:pageopacity="0"
     inkscape:pagecheckerboard="1"
     inkscape:deskcolor="#505050" />
  <rect
     x="4.9056001"
     y="0.90560502"
     width="43.469002"
     height="43.469002"
     rx="21.734501"
     stroke="#fcc436"
     stroke-width="1.81121"
     id="rect1" />
  <path
     d="m 36.2922,19.7364 v 11.203 c 0,0.7468 -0.2642,1.3845 -0.7927,1.9129 -0.5284,0.5285 -1.1661,0.7927 -1.9129,0.7927 H 20.0584 c -0.7468,0 -1.3845,-0.2642 -1.9129,-0.7927 -0.5285,-0.5284 -0.7927,-1.1661 -0.7927,-1.9129 V 19.7364 C 16.9442,19.4968 16.6165,19.1727 16.3699,18.7641 16.1233,18.3554 16,17.9045 16,17.4113 c 0,-0.9865 0.4826,-1.8919 1.4479,-2.7162 0.9653,-0.8244 2.2794,-1.4797 3.9422,-1.9658 C 23.0529,12.2431 24.8637,12 26.8225,12 c 1.9588,0 3.7696,0.2431 5.4324,0.7293 1.6628,0.4861 2.9769,1.1414 3.9422,1.9658 0.9653,0.8243 1.4479,1.7297 1.4479,2.7162 0,0.4932 -0.1233,0.9441 -0.3699,1.3528 -0.2466,0.4086 -0.5743,0.7327 -0.9829,0.9723 z"
     fill="#fcc436"
     id="path1" />
  <path
     d="m 26.4559,23.0859 c 0.0347,-0.1642 0.1325,-0.3281 0.2493,-0.4373 0.0567,-0.0531 0.104,-0.0801 0.1317,-0.0912 l 0.0052,-0.002 c 0.3132,0.0506 0.614,-0.1533 0.6802,-0.467 0.0682,-0.3232 -0.1385,-0.6405 -0.4617,-0.7088 -0.4807,-0.1014 -0.9082,0.148 -1.1726,0.3953 -0.2831,0.2649 -0.5136,0.6429 -0.6025,1.0639 -0.0683,0.3233 0.1385,0.6406 0.4617,0.7088 0.3232,0.0682 0.6405,-0.1385 0.7087,-0.4617 z"
     fill="#ffffff"
     id="path2" />
  <path
     d="m 21.4655,20.2267 c -2.1379,1.7031 -2.1931,4.5888 -1.1912,6.5329 0.6733,1.3065 1.9682,2.4693 3.9105,2.4693 0.4819,0 0.8295,-0.0132 1.1032,-0.0236 0.8292,-0.0315 0.9797,-0.0372 2.134,0.4287 1.5353,0.6196 3.1679,0.4357 4.5321,-0.4246 1.2277,-0.7742 1.9323,-2.5719 1.8129,-4.0308 -0.0634,-0.7733 0.0059,-1.0887 0.085,-1.4487 C 33.9221,23.4108 34,23.0566 34,22.3172 c 0,-1.5735 -0.4662,-2.5766 -0.9323,-3.397 -0.4661,-0.8205 -0.9727,-1.6333 -2.4084,-2.5479 -1.1793,-0.7511 -3.413,-1.111 -5.1796,-0.1306 -1.2949,0.7186 -1.9423,1.3719 -2.7193,2.6785 -0.2941,0.4946 -0.5762,0.734 -1.2949,1.3065 z m 9.6635,2.9547 c 0,2.1801 -1.7674,3.9476 -3.9476,3.9476 -2.1802,0 -3.9476,-1.7675 -3.9476,-3.9476 0,-2.1802 1.7674,-3.9476 3.9476,-3.9476 2.1802,0 3.9476,1.7674 3.9476,3.9476 z"
     fill="#ffffff"
     id="path3" />
</svg>
