<?xml version="1.0" encoding="UTF-8" standalone="no"?>
<svg
   width="46"
   height="60"
   viewBox="0 0 46 60"
   fill="none"
   version="1.1"
   id="svg6"
   sodipodi:docname="chicken.svg"
   xmlns:inkscape="http://www.inkscape.org/namespaces/inkscape"
   xmlns:sodipodi="http://sodipodi.sourceforge.net/DTD/sodipodi-0.dtd"
   xmlns="http://www.w3.org/2000/svg"
   xmlns:svg="http://www.w3.org/2000/svg">
  <defs
     id="defs6" />
  <sodipodi:namedview
     id="namedview6"
     pagecolor="#505050"
     bordercolor="#ffffff"
     borderopacity="1"
     inkscape:showpageshadow="0"
     inkscape:pageopacity="0"
     inkscape:pagecheckerboard="1"
     inkscape:deskcolor="#505050" />
  <rect
     x="0.90560502"
     y="0.90560502"
     width="43.469002"
     height="43.469002"
     rx="21.734501"
     stroke="#fcc436"
     stroke-width="1.81121"
     id="rect1" />
  <path
     d="m 26.95,14.3857 c 0,0 2.1141,-3.5033 1.1477,-3.9866 -0.9665,-0.48319 -2.4161,0.4833 -2.4161,0.4833 0,0 0.9664,-3.38261 -0.9665,-3.38261 -1.9329,0 -2.4161,1.9329 -2.4161,1.9329 0,0 -0.7041,-4.00884 -3.3826,-2.89935 -1.6739,0.69343 -2.4161,2.41612 0,7.24836"
     fill="#fcc436"
     id="path2" />
  <path
     d="m 18.9049,24.1084 c 0.7502,0 1.3584,-0.6081 1.3584,-1.3584 0,-0.7502 -0.6082,-1.3584 -1.3584,-1.3584 -0.7503,0 -1.3585,0.6082 -1.3585,1.3584 0,0.7503 0.6082,1.3584 1.3585,1.3584 z"
     fill="#fcc436"
     id="path3" />
  <path
     d="m 27.603,24.1084 c 0.7502,0 1.3584,-0.6081 1.3584,-1.3584 0,-0.7502 -0.6082,-1.3584 -1.3584,-1.3584 -0.7503,0 -1.3584,0.6082 -1.3584,1.3584 0,0.7503 0.6081,1.3584 1.3584,1.3584 z"
     fill="#fcc436"
     id="path4" />
  <path
     d="m 22.8717,24.291 c 0,0 8.698,-0.4833 0,8.698 0,0 -8.6981,-8.698 0,-8.698 z"
     fill="#fcc436"
     id="path5" />
  <path
     d="m 22.862,34.4387 c 0.0452,1.3576 0.0459,1.3576 0.0466,1.3576 l 0.0018,-1e-4 0.0045,-10e-5 0.0131,-5e-4 0.0415,-0.0019 c 0.0345,-0.0017 0.0823,-0.0043 0.1423,-0.0082 0.1201,-0.0079 0.2894,-0.0211 0.499,-0.0428 0.4184,-0.0434 1.002,-0.1213 1.6772,-0.2605 1.3319,-0.2744 3.1073,-0.8045 4.6698,-1.8461 1.5895,-1.0597 2.9978,-2.6814 3.4161,-5.0798 0.4081,-2.34 -0.1656,-5.1998 -2.0265,-8.6984 -0.0204,-0.0512 -0.0486,-0.1197 -0.0849,-0.2031 -0.0755,-0.1735 -0.1867,-0.413 -0.3371,-0.6966 -0.2993,-0.5643 -0.7617,-1.3189 -1.4179,-2.0787 -1.3177,-1.5257 -3.4758,-3.1282 -6.6455,-3.1282 -3.1698,0 -5.3279,1.6025 -6.6456,3.1282 -0.6561,0.7598 -1.1186,1.5144 -1.4178,2.0787 -0.1504,0.2836 -0.2617,0.5231 -0.3372,0.6966 -0.0363,0.0834 -0.0645,0.1519 -0.0849,0.2031 -1.8608,3.4986 -2.4346,6.3584 -2.0265,8.6984 0.4184,2.3984 1.8266,4.0201 3.4161,5.0798 1.5626,1.0416 3.3379,1.5717 4.6699,1.8461 0.6751,0.1392 1.2588,0.2171 1.6771,0.2605 0.2096,0.0217 0.379,0.0349 0.499,0.0428 0.06,0.0039 0.1079,0.0065 0.1423,0.0082 l 0.0416,0.0019 0.013,5e-4 0.0045,10e-5 0.0018,1e-4 c 7e-4,0 0.0014,0 0.0467,-1.3576 z m 0,0 -0.0453,1.3576 c 0.0302,10e-4 0.0604,10e-4 0.0905,0 z"
     stroke="#fcc436"
     stroke-width="2.71681"
     stroke-miterlimit="10"
     stroke-linecap="round"
     stroke-linejoin="round"
     id="path6" />
</svg>
