<?xml version="1.0" encoding="UTF-8" standalone="no"?>
<svg
   width="46"
   height="60"
   viewBox="0 0 46 60"
   fill="none"
   version="1.1"
   id="svg2"
   sodipodi:docname="cocktail.svg"
   xmlns:inkscape="http://www.inkscape.org/namespaces/inkscape"
   xmlns:sodipodi="http://sodipodi.sourceforge.net/DTD/sodipodi-0.dtd"
   xmlns="http://www.w3.org/2000/svg"
   xmlns:svg="http://www.w3.org/2000/svg">
  <defs
     id="defs2" />
  <sodipodi:namedview
     id="namedview2"
     pagecolor="#505050"
     bordercolor="#ffffff"
     borderopacity="1"
     inkscape:showpageshadow="0"
     inkscape:pageopacity="0"
     inkscape:pagecheckerboard="1"
     inkscape:deskcolor="#505050" />
  <rect
     x="0.90560502"
     y="0.90560502"
     width="43.469002"
     height="43.469002"
     rx="21.734501"
     stroke="#fcc436"
     stroke-width="1.81121"
     id="rect1" />
  <path
     d="m 33.3142,11.6237 c -0.0795,0.2827 -0.2562,0.4948 -0.5301,0.6361 -0.2738,0.1414 -0.561,0.1767 -0.8613,0.106 l -3.8959,-1.1396 -0.7421,2.8623 h 0.1326 c 0.2296,0 0.4284,0.0839 0.5963,0.2518 0.1678,0.1678 0.2517,0.3666 0.2517,0.5963 v 19.5058 c 0,0.477 -0.1678,0.879 -0.5035,1.2059 -0.3357,0.3268 -0.7332,0.4903 -1.1926,0.4903 h -6.7847 c -0.477,0 -0.879,-0.1679 -1.2058,-0.5036 -0.3269,-0.3357 -0.4903,-0.7332 -0.4903,-1.1926 V 19.177 c -1.4135,0 -2.6149,-0.4948 -3.6044,-1.4842 C 13.4947,16.7034 13,15.5019 13,14.0885 13,12.675 13.4947,11.4736 14.4841,10.4841 15.4736,9.49471 16.675,9 18.0885,9 c 1.4134,0 2.6149,0.49471 3.6043,1.4841 0.9894,0.9895 1.4842,2.1909 1.4842,3.6044 h 1.9346 L 26.2247,9.84808 C 26.2954,9.63606 26.3926,9.47263 26.5163,9.35778 26.64,9.24294 26.799,9.16343 26.9933,9.11926 27.1877,9.07509 27.3379,9.04859 27.4439,9.03975 27.5499,9.03092 27.7354,9.0265 28.0004,9.0265 l 4.5054,1.3251 c 0.3181,0.0707 0.5522,0.2297 0.7024,0.4771 0.1501,0.2473 0.1855,0.5124 0.106,0.795 z m -13.5296,5.3801 c 0.5124,-0.3004 0.9188,-0.7068 1.2192,-1.2192 h -1.2192 z m -1.6961,-6.3076 c -0.9364,0 -1.7359,0.3312 -2.3985,0.9938 -0.6626,0.6626 -0.9938,1.4621 -0.9938,2.3985 0,0.9364 0.3312,1.7359 0.9938,2.3985 0.6626,0.6625 1.4621,0.9938 2.3985,0.9938 v -2.5442 c 0,-0.2297 0.0839,-0.4285 0.2518,-0.5963 0.1678,-0.1679 0.3666,-0.2518 0.5963,-0.2518 h 2.5442 c 0,-0.9364 -0.3313,-1.7359 -0.9938,-2.3985 -0.6626,-0.6626 -1.4621,-0.9938 -2.3985,-0.9938 z m 4.7704,5.0884 c -0.2473,0.7244 -0.6404,1.3561 -1.1793,1.895 -0.5389,0.5389 -1.1706,0.932 -1.895,1.1793 v 2.0142 h 3.5249 l 1.3516,-5.0885 z m 3.7104,1.0071 -1.0866,4.0814 h 1.0866 z"
     fill="#fcc436"
     id="path1" />
</svg>
