<?xml version="1.0" encoding="UTF-8" standalone="no"?>
<svg
   width="46"
   height="60"
   viewBox="0 0 46 60"
   fill="none"
   version="1.1"
   id="svg2"
   sodipodi:docname="cocoa.svg"
   inkscape:export-filename="cocoa.svg"
   inkscape:export-xdpi="96"
   inkscape:export-ydpi="96"
   xmlns:inkscape="http://www.inkscape.org/namespaces/inkscape"
   xmlns:sodipodi="http://sodipodi.sourceforge.net/DTD/sodipodi-0.dtd"
   xmlns="http://www.w3.org/2000/svg"
   xmlns:svg="http://www.w3.org/2000/svg">
  <defs
     id="defs2" />
  <sodipodi:namedview
     id="namedview2"
     pagecolor="#505050"
     bordercolor="#ffffff"
     borderopacity="1"
     inkscape:showpageshadow="0"
     inkscape:pageopacity="0"
     inkscape:pagecheckerboard="1"
     inkscape:deskcolor="#505050" />
  <rect
     x="0.90560502"
     y="0.90560502"
     width="43.469002"
     height="43.469002"
     rx="21.734501"
     stroke="#fcc436"
     stroke-width="1.81121"
     id="rect1" />
  <path
     d="m 17.0742,15.6895 v -3.4876 c 0,-0.2312 0.0919,-0.453 0.2554,-0.6165 0.1635,-0.1635 0.3853,-0.2554 0.6165,-0.2554 0.2313,0 0.453,0.0919 0.6166,0.2554 0.1635,0.1635 0.2553,0.3853 0.2553,0.6165 v 3.4876 c 0,0.2312 -0.0918,0.453 -0.2553,0.6165 -0.1636,0.1635 -0.3853,0.2554 -0.6166,0.2554 -0.2312,0 -0.453,-0.0919 -0.6165,-0.2554 -0.1635,-0.1635 -0.2554,-0.3853 -0.2554,-0.6165 z m 4.3595,0.8719 c 0.1145,0 0.2279,-0.0225 0.3337,-0.0664 0.1058,-0.0438 0.2019,-0.108 0.2829,-0.189 0.0809,-0.0809 0.1451,-0.177 0.189,-0.2828 0.0438,-0.1058 0.0663,-0.2192 0.0663,-0.3337 v -3.4876 c 0,-0.2312 -0.0918,-0.453 -0.2554,-0.6165 C 21.8867,11.4219 21.665,11.33 21.4337,11.33 c -0.2312,0 -0.453,0.0919 -0.6165,0.2554 -0.1635,0.1635 -0.2554,0.3853 -0.2554,0.6165 v 3.4876 c 0,0.1145 0.0226,0.2279 0.0664,0.3337 0.0438,0.1058 0.108,0.2019 0.189,0.2828 0.081,0.081 0.1771,0.1452 0.2829,0.189 0.1057,0.0439 0.2191,0.0664 0.3336,0.0664 z m 3.4876,0 c 0.1145,0 0.2279,-0.0225 0.3337,-0.0664 0.1058,-0.0438 0.2019,-0.108 0.2828,-0.189 0.081,-0.0809 0.1452,-0.177 0.189,-0.2828 0.0439,-0.1058 0.0664,-0.2192 0.0664,-0.3337 v -3.4876 c 0,-0.2312 -0.0918,-0.453 -0.2554,-0.6165 -0.1635,-0.1635 -0.3852,-0.2554 -0.6165,-0.2554 -0.2312,0 -0.453,0.0919 -0.6165,0.2554 -0.1635,0.1635 -0.2554,0.3853 -0.2554,0.6165 v 3.4876 c 0,0.1145 0.0226,0.2279 0.0664,0.3337 0.0438,0.1058 0.108,0.2019 0.189,0.2828 0.0809,0.081 0.1771,0.1452 0.2828,0.189 0.1058,0.0439 0.2192,0.0664 0.3337,0.0664 z m 10.4628,6.1033 v 0.8719 c -0.0014,1.1087 -0.4247,2.1753 -1.1839,2.9832 -0.7593,0.808 -1.7975,1.2967 -2.904,1.367 -0.596,1.6823 -1.6096,3.1856 -2.9457,4.3688 h 2.6741 c 0.2312,0 0.453,0.0918 0.6165,0.2553 0.1635,0.1636 0.2554,0.3853 0.2554,0.6166 0,0.2312 -0.0919,0.453 -0.2554,0.6165 -0.1635,0.1635 -0.3853,0.2554 -0.6165,0.2554 h -5.5779 c -0.0041,0 -0.0082,6e-4 -0.0123,6e-4 -0.0031,0 -0.0061,-6e-4 -0.0092,-6e-4 h -8.0067 c -0.005,-1e-4 -0.0099,10e-5 -0.0148,0 h -5.5609 c -0.2312,0 -0.453,-0.0919 -0.6165,-0.2554 -0.1635,-0.1635 -0.2554,-0.3853 -0.2554,-0.6165 0,-0.2313 0.0919,-0.453 0.2554,-0.6166 0.1635,-0.1635 0.3853,-0.2553 0.6165,-0.2553 h 2.6742 c -1.1123,-0.983 -2.0034,-2.1906 -2.6147,-3.5432 -0.6112,-1.3527 -0.9287,-2.8196 -0.9314,-4.3039 v -5.2314 c 0,-0.1145 0.0226,-0.2279 0.0664,-0.3337 0.0438,-0.1058 0.108,-0.2019 0.189,-0.2828 0.081,-0.081 0.1771,-0.1452 0.2829,-0.189 0.1058,-0.0439 0.2191,-0.0664 0.3336,-0.0664 h 19.1818 c 1.1558,0.0013 2.2639,0.461 3.0812,1.2783 0.8173,0.8173 1.277,1.9254 1.2783,3.0812 z M 30.1527,20.049 h -17.438 v 4.3595 c 0.0033,1.637 0.4658,3.2402 1.335,4.6274 0.8692,1.3872 2.1101,2.5027 3.5818,3.2197 h 7.6045 c 1.0997,-0.536 2.0749,-1.2966 2.8626,-2.2327 0.7878,-0.936 1.3705,-2.0268 1.7107,-3.202 0.0056,-0.0234 0.0118,-0.0466 0.0193,-0.0692 0.2146,-0.7626 0.3236,-1.551 0.3241,-2.3432 z m 3.4876,2.6157 c -7e-4,-0.5407 -0.1687,-1.068 -0.4809,-1.5094 -0.3122,-0.4415 -0.7533,-0.7755 -1.2629,-0.9563 v 4.2095 c -5e-4,0.548 -0.0443,1.0952 -0.1311,1.6363 0.5409,-0.1605 1.0156,-0.4912 1.3534,-0.9432 0.3378,-0.4519 0.5207,-1.0008 0.5215,-1.565 z"
     fill="#fcc436"
     stroke="#fcc436"
     id="path1" />
</svg>
