<?xml version="1.0" encoding="UTF-8" standalone="no"?>
<svg
   width="46"
   height="60"
   viewBox="0 0 46 60"
   fill="none"
   version="1.1"
   id="svg7"
   sodipodi:docname="dessert.svg"
   xmlns:inkscape="http://www.inkscape.org/namespaces/inkscape"
   xmlns:sodipodi="http://sodipodi.sourceforge.net/DTD/sodipodi-0.dtd"
   xmlns="http://www.w3.org/2000/svg"
   xmlns:svg="http://www.w3.org/2000/svg">
  <defs
     id="defs7" />
  <sodipodi:namedview
     id="namedview7"
     pagecolor="#505050"
     bordercolor="#ffffff"
     borderopacity="1"
     inkscape:showpageshadow="0"
     inkscape:pageopacity="0"
     inkscape:pagecheckerboard="1"
     inkscape:deskcolor="#505050" />
  <rect
     x="0.90560502"
     y="0.90560502"
     width="43.469002"
     height="43.469002"
     rx="21.734501"
     stroke="#fcc436"
     stroke-width="1.81121"
     id="rect1" />
  <path
     d="M 35.212,18.0158 V 30.641 c 0,0.4502 -0.3647,0.8145 -0.8145,0.8145 H 10.7762 c -0.4498,0 -0.81453,-0.3643 -0.81453,-0.8145 V 18.0158 c 0,-0.4494 0.36473,-0.8145 0.81453,-0.8145 l 13.8454,-2.2149"
     stroke="#fcc436"
     stroke-width="2.71681"
     stroke-miterlimit="10"
     stroke-linecap="round"
     stroke-linejoin="round"
     id="path2" />
  <path
     d="m 31.5542,13.9641 c 2.0542,0.2078 3.6578,1.943 3.6578,4.0517"
     stroke="#fcc436"
     stroke-width="2.71681"
     stroke-miterlimit="10"
     stroke-linecap="round"
     stroke-linejoin="round"
     id="path3" />
  <path
     d="m 9.96168,17.6593 0.40722,5.2437 c 1.1248,0 2.0364,-0.9116 2.0364,-2.0359 0,-1.1248 0.9115,-2.0367 2.0363,-2.0367 1.1247,0 2.0363,0.9119 2.0363,2.0367 0,1.1243 0.9116,2.0359 2.0363,2.0359 1.1247,0 2.0363,-0.9116 2.0363,-2.0359 0,-1.1248 0.9116,-2.0367 2.0363,-2.0367 1.1248,0 2.0364,0.9119 2.0364,2.0367 0,1.1243 0.9115,2.0359 2.0363,2.0359 1.1247,0 2.0363,-0.9116 2.0363,-2.0359 0,-1.1248 0.9116,-2.0367 2.0363,-2.0367 1.1247,0 2.0363,0.9119 2.0363,2.0367 0,1.1243 0.9116,2.0359 2.0363,2.0359 L 34.413,14.4897"
     fill="#fcc436"
     id="path4" />
  <path
     d="M 9.96167,26.8845 H 35.212"
     stroke="#fcc436"
     stroke-width="2.71681"
     stroke-miterlimit="10"
     stroke-linecap="round"
     stroke-linejoin="round"
     id="path5" />
  <path
     d="m 28.0849,17.3381 c 1.8749,0 3.3947,-1.5198 3.3947,-3.3947 0,-1.8748 -1.5198,-3.3947 -3.3947,-3.3947 -1.8749,0 -3.3947,1.5199 -3.3947,3.3947 0,1.8749 1.5198,3.3947 3.3947,3.3947 z"
     fill="#ffffff"
     stroke="#fcc436"
     stroke-width="2.71681"
     stroke-miterlimit="10"
     stroke-linecap="round"
     stroke-linejoin="round"
     id="path6" />
  <path
     d="m 28.0848,13.1287 c 0,-2.2493 1.8232,-4.07265 4.0727,-4.07265"
     stroke="#fcc436"
     stroke-width="1.81121"
     stroke-miterlimit="10"
     stroke-linecap="round"
     stroke-linejoin="round"
     id="path7" />
</svg>
