<?xml version="1.0" encoding="UTF-8" standalone="no"?>
<svg
   width="46"
   height="60"
   viewBox="0 0 46 60"
   fill="none"
   version="1.1"
   id="svg4"
   sodipodi:docname="goat.svg"
   xmlns:inkscape="http://www.inkscape.org/namespaces/inkscape"
   xmlns:sodipodi="http://sodipodi.sourceforge.net/DTD/sodipodi-0.dtd"
   xmlns="http://www.w3.org/2000/svg"
   xmlns:svg="http://www.w3.org/2000/svg">
  <sodipodi:namedview
     id="namedview4"
     pagecolor="#505050"
     bordercolor="#ffffff"
     borderopacity="1"
     inkscape:showpageshadow="0"
     inkscape:pageopacity="0"
     inkscape:pagecheckerboard="1"
     inkscape:deskcolor="#505050" />
  <rect
     x="0.90560502"
     y="0.90560502"
     width="43.469002"
     height="43.469002"
     rx="21.734501"
     stroke="#fcc436"
     stroke-width="1.81121"
     id="rect1" />
  <g
     clip-path="url(#clip0_2906_9)"
     id="g4">
    <path
       d="m 31.874,7.85033 -2e-4,-4e-5 C 31.8071,7.83698 31.1103,7.70341 30.1906,7.76712 29.2725,7.83073 28.109,8.09268 27.1335,8.89176 26.3549,9.52961 25.8298,10.387 25.5552,11.4384 23.9442,10.866 22.1381,10.8357 20.4451,11.4386 20.1704,10.3871 19.6454,9.5297 18.8666,8.89181 17.8912,8.09274 16.7277,7.83076 15.8095,7.76713 14.8898,7.70339 14.193,7.83694 14.1262,7.85032 l -1e-4,2e-5 c -0.6762,0.13579 -1.1176,0.79452 -0.9817,1.47201 v 2e-5 c 0.1356,0.67525 0.7902,1.11533 1.4671,0.98053 0.0339,-0.0061 0.4453,-0.0769 0.9752,-0.0477 0.5582,0.0307 1.2117,0.1706 1.7023,0.5761 0.4667,0.3858 0.7647,1.0137 0.8544,1.9143 -0.54,0.4467 -1.019,0.9684 -1.4206,1.5525 h -6.3081 c -0.69039,0 -1.25009,0.5597 -1.25009,1.2501 0,2.8125 2.43599,5.0006 5.20139,4.731 -0.0495,0.1432 -0.1085,0.3142 -0.1767,0.5119 -0.3954,1.1454 -1.1015,3.191 -2.061,5.9702 -0.2254,0.6526 0.121,1.3643 0.7736,1.5895 0.6527,0.2253 1.3643,-0.1211 1.5896,-0.7736 l 0.3446,-0.9981 3.3284,8.3872 c 0.789,1.9884 2.6798,3.2759 4.8179,3.283 l 0.002,2e-4 c 0.0039,2e-4 0.0093,4e-4 0.0157,4e-4 0.0031,0 0.0059,-10e-5 0.0085,-10e-5 0.0027,-1e-4 0.0052,-2e-4 0.0072,-3e-4 l 0.002,-2e-4 c 2.1376,-0.0071 4.0284,-1.2945 4.8177,-3.2829 v -1e-4 l 3.3284,-8.387 0.3445,0.9979 v 0 c 0.2255,0.6528 0.9371,0.9988 1.5896,0.7736 v 0 c 0.6526,-0.2253 0.9989,-0.9369 0.7736,-1.5895 l -0.2363,0.0816 0.2363,-0.0816 c -0.2232,-0.6466 -0.4173,-1.2085 -0.5877,-1.7019 -0.9704,-2.8094 -1.1743,-3.3999 -1.6366,-4.7789 2.768,0.2625 5.1881,-1.9329 5.1881,-4.7323 0,-0.6904 -0.5597,-1.2501 -1.2501,-1.2501 h -6.3054 c -0.3889,-0.5976 -0.8388,-1.0883 -1.4226,-1.5579 0.0904,-0.8978 0.3881,-1.5239 0.8538,-1.9089 0.4906,-0.4056 1.1441,-0.5454 1.7019,-0.5763 0.5365,-0.0297 0.9503,0.0433 0.9693,0.0467 6e-4,10e-5 8e-4,10e-5 7e-4,10e-5 l 0.0482,-0.2453 -0.049,0.2451 C 32.0595,10.437 32.7177,9.99883 32.8536,9.32198 32.9895,8.645 32.5508,7.9862 31.874,7.85033 Z M 25.4894,29.5873 v 0 c 0.6989,-0.8071 0.1261,-2.0685 -0.9449,-2.0685 h -3.0888 c -1.0673,0 -1.6461,1.2586 -0.9449,2.0685 v 0 l 1.2393,1.4309 v 4.4279 c -0.5625,-0.292 -1.0151,-0.7805 -1.2616,-1.4019 l -0.2324,0.0922 0.2324,-0.0922 -4.4011,-11.0901 c 1.5578,-4.5117 1.6493,-4.7759 1.7399,-5.0403 0.0198,-0.0576 0.0395,-0.1152 0.0743,-0.2167 v -10e-5 c 0.9587,-2.7996 3.0312,-4.2122 5.073,-4.2386 2.0381,-0.0264 4.1271,1.3278 5.1234,4.2372 v 10e-5 c 0.1829,0.5336 0.8977,2.6025 1.3833,4.008 0.2015,0.5831 0.3635,1.0521 0.4318,1.2499 l -4.4014,11.0905 c -0.2466,0.6213 -0.6992,1.1099 -1.2616,1.4019 V 31.0182 Z M 15.4198,17.2264 c -1.0334,0.9271 -2.6333,0.6947 -3.3772,-0.4281 h 3.5239 c -0.0138,0.0402 -0.0278,0.0811 -0.042,0.1228 -0.0333,0.0971 -0.068,0.1983 -0.1047,0.3053 z m 18.5374,-0.4281 c -0.7302,1.1008 -2.2913,1.3546 -3.3346,0.4642 -0.0571,-0.1601 -0.1132,-0.3147 -0.1687,-0.4642 z"
       fill="#fcc436"
       stroke="#fcc436"
       stroke-width="0.5"
       id="path2" />
    <path
       d="m 25.7548,23.9374 c 0.7306,0 1.3229,-0.5923 1.3229,-1.3229 0,-0.7306 -0.5923,-1.3229 -1.3229,-1.3229 -0.7306,0 -1.3229,0.5923 -1.3229,1.3229 0,0.7306 0.5923,1.3229 1.3229,1.3229 z"
       fill="#fcc436"
       id="path3" />
    <path
       d="m 20.2855,23.9374 c 0.7306,0 1.3229,-0.5923 1.3229,-1.3229 0,-0.7306 -0.5923,-1.3229 -1.3229,-1.3229 -0.7307,0 -1.323,0.5923 -1.323,1.3229 0,0.7306 0.5923,1.3229 1.323,1.3229 z"
       fill="#fcc436"
       id="path4" />
  </g>
  <defs
     id="defs4">
    <clipPath
       id="clip0_2906_9">
      <rect
         width="30"
         height="30"
         fill="#ffffff"
         transform="translate(8,8)"
         id="rect4"
         x="0"
         y="0" />
    </clipPath>
  </defs>
</svg>
