<?xml version="1.0" encoding="UTF-8" standalone="no"?>
<svg
   width="46"
   height="69"
   viewBox="0 0 46 69"
   fill="none"
   version="1.1"
   id="svg2"
   sodipodi:docname="OrdinaryDrink.svg"
   xmlns:inkscape="http://www.inkscape.org/namespaces/inkscape"
   xmlns:sodipodi="http://sodipodi.sourceforge.net/DTD/sodipodi-0.dtd"
   xmlns="http://www.w3.org/2000/svg"
   xmlns:svg="http://www.w3.org/2000/svg">
  <defs
     id="defs2" />
  <sodipodi:namedview
     id="namedview2"
     pagecolor="#505050"
     bordercolor="#ffffff"
     borderopacity="1"
     inkscape:showpageshadow="0"
     inkscape:pageopacity="0"
     inkscape:pagecheckerboard="1"
     inkscape:deskcolor="#505050" />
  <rect
     x="0.90560502"
     y="0.90560502"
     width="43.469002"
     height="43.469002"
     rx="21.734501"
     stroke="#fcc436"
     stroke-width="1.81121"
     id="rect1" />
  <path
     d="M 16.8972,10 C 16.4017,10 16,10.4017 16,10.8972 v 8.9719 c 0,3.6607 2.7406,6.6813 6.282,7.1222 -0.0011,0.0183 -0.0017,0.0366 -0.0017,0.0553 v 6.2803 h -2.6916 c -0.4954,0 -0.8971,0.4017 -0.8971,0.8972 0,0.4954 0.4017,0.8972 0.8971,0.8972 h 7.1775 c 0.4955,0 0.8972,-0.4018 0.8972,-0.8972 0,-0.4955 -0.4017,-0.8972 -0.8972,-0.8972 h -2.6915 v -6.2803 c 0,-0.0187 -6e-4,-0.037 -0.0017,-0.0553 3.5415,-0.4409 6.282,-3.4615 6.282,-7.1222 V 10.8972 C 30.355,10.4017 29.9532,10 29.4578,10 Z m 0.8972,5.3831 v -3.5887 h 10.7662 v 3.5887 z m 10.2875,4.1328 c -0.1149,1.0357 -0.5547,2.0085 -1.2564,2.7788 -0.7017,0.7704 -1.6293,1.2989 -2.6499,1.5097 -0.4852,0.1002 -0.9598,-0.2119 -1.0601,-0.6972 -0.1002,-0.4853 0.2119,-0.9599 0.6972,-1.0601 0.6494,-0.1342 1.2397,-0.4705 1.6863,-0.9607 0.4465,-0.4902 0.7264,-1.1093 0.7995,-1.7684 0.0546,-0.4924 0.4983,-0.8474 0.9906,-0.7927 0.4926,0.0546 0.8475,0.4981 0.7928,0.9906 z"
     fill="#fcc436"
     id="path1" />
</svg>
