<?xml version="1.0" encoding="UTF-8" standalone="no"?>
<svg
   width="54"
   height="69"
   viewBox="0 0 54 69"
   fill="none"
   version="1.1"
   id="svg2"
   sodipodi:docname="other.svg"
   xmlns:inkscape="http://www.inkscape.org/namespaces/inkscape"
   xmlns:sodipodi="http://sodipodi.sourceforge.net/DTD/sodipodi-0.dtd"
   xmlns="http://www.w3.org/2000/svg"
   xmlns:svg="http://www.w3.org/2000/svg">
  <defs
     id="defs2" />
  <sodipodi:namedview
     id="namedview2"
     pagecolor="#505050"
     bordercolor="#ffffff"
     borderopacity="1"
     inkscape:showpageshadow="0"
     inkscape:pageopacity="0"
     inkscape:pagecheckerboard="1"
     inkscape:deskcolor="#505050" />
  <rect
     x="4.9056001"
     y="0.90560502"
     width="43.469002"
     height="43.469002"
     rx="21.734501"
     stroke="#fcc436"
     stroke-width="1.81121"
     id="rect1" />
  <path
     d="m 25.7609,12 c -1.1378,0 -2.1079,0.5314 -2.8533,1.284 -0.4066,-0.157 -0.7918,-0.371 -1.2554,-0.371 -2.008,0 -3.6522,1.6442 -3.6522,3.6522 0,0.938 0.3816,1.7762 0.9701,2.4253 -0.0357,0.0999 -0.0571,0.2069 -0.0571,0.3138 v 11.8696 c 0,1.5015 1.2376,2.7391 2.7392,2.7391 h 10.9565 c 1.5015,0 2.7391,-1.2376 2.7391,-2.7391 v -1.8261 h 0.9131 C 37.7624,29.3478 39,28.1102 39,26.6087 v -3.6522 c 0,-1.5015 -1.2376,-2.7391 -2.7391,-2.7391 h -0.9131 v -1.0842 c 0.0072,-0.0678 0.0072,-0.132 0,-0.1998 0.5564,-0.642 0.9131,-1.4587 0.9131,-2.3682 0,-2.008 -1.6442,-3.6522 -3.6522,-3.6522 -0.6812,0 -1.284,0.2426 -1.8261,0.5707 -0.5421,-0.3281 -1.1449,-0.5707 -1.8261,-0.5707 -0.2354,0 -0.4208,0.0714 -0.6277,0.1142 C 27.6191,12.4316 26.7595,12 25.7609,12 Z m -2.1114,7.5326 c 0.6241,0.3888 1.3232,0.6848 2.1114,0.6848 0.0963,0 0.1391,-0.0464 0.2282,-0.0571 -0.0749,0.3531 -0.0713,0.8061 -0.1712,1.1128 -0.2175,0.6705 -0.5136,1.3125 -0.5136,2.1399 0,1.7548 1.4409,3.1957 3.1957,3.1957 1.7548,0 3.1957,-1.4409 3.1957,-3.1957 0,-0.8274 -0.2961,-1.473 -0.5136,-2.1399 -0.1177,-0.3638 -0.1498,-0.8774 -0.2283,-1.3125 0.5849,0.1355 0.8489,0.2568 1.6549,0.2568 0.3139,0 0.6206,-0.0678 0.913,-0.1427 v 0.7704 c -0.0535,0.1783 -0.0535,0.3638 0,0.5421 v 6.8764 c -0.0249,0.1213 -0.0249,0.2496 0,0.3709 v 2.5394 c 0,0.5172 -0.3959,0.9131 -0.913,0.9131 H 21.6522 c -0.5172,0 -0.9131,-0.3959 -0.9131,-0.9131 V 20.0747 c 0.2925,0.0749 0.5992,0.1427 0.9131,0.1427 0.7525,0 1.4159,-0.2925 1.9973,-0.6848 z m 11.6983,2.5109 h 0.9131 c 0.5171,0 0.913,0.3959 0.913,0.913 v 3.6522 c 0,0.5171 -0.3959,0.913 -0.913,0.913 h -0.9131 z"
     fill="#fcc436"
     id="path1" />
</svg>
