<?xml version="1.0" encoding="UTF-8" standalone="no"?>
<svg
   width="46"
   height="60"
   viewBox="0 0 46 60"
   fill="none"
   version="1.1"
   id="svg5"
   sodipodi:docname="shake.svg"
   xmlns:inkscape="http://www.inkscape.org/namespaces/inkscape"
   xmlns:sodipodi="http://sodipodi.sourceforge.net/DTD/sodipodi-0.dtd"
   xmlns="http://www.w3.org/2000/svg"
   xmlns:svg="http://www.w3.org/2000/svg">
  <defs
     id="defs5" />
  <sodipodi:namedview
     id="namedview5"
     pagecolor="#505050"
     bordercolor="#ffffff"
     borderopacity="1"
     inkscape:showpageshadow="0"
     inkscape:pageopacity="0"
     inkscape:pagecheckerboard="1"
     inkscape:deskcolor="#505050" />
  <rect
     x="0.90560502"
     y="0.90560502"
     width="43.469002"
     height="43.469002"
     rx="21.734501"
     stroke="#fcc436"
     stroke-width="1.81121"
     id="rect1" />
  <path
     d="M 13.9,17.9521 H 32.455"
     stroke="#fcc436"
     stroke-width="2.65071"
     stroke-linecap="round"
     id="path2" />
  <path
     d="m 16.6521,19.3719 c -0.0548,-0.7671 0.5529,-1.4198 1.3221,-1.4198 h 10.4067 c 0.7691,0 1.3768,0.6527 1.322,1.4198 l -1.136,15.9043 c -0.0496,0.6936 -0.6267,1.2309 -1.322,1.2309 h -8.1348 c -0.6953,0 -1.2724,-0.5373 -1.322,-1.2309 z"
     stroke="#fcc436"
     stroke-width="2.65071"
     id="path3" />
  <path
     d="M 23.1775,13.9761 V 11.3254 C 23.1775,10.5934 23.7709,10 24.5028,10 h 1.9881"
     stroke="#fcc436"
     stroke-width="2.65071"
     stroke-linecap="round"
     id="path4" />
  <path
     d="m 17.0288,15.0835 c 0.1065,-0.6391 0.6595,-1.1075 1.3074,-1.1075 h 9.6826 c 0.6479,0 1.2009,0.4684 1.3074,1.1075 l 0.4781,2.8686 H 16.5507 Z"
     fill="#fcc436"
     stroke="#fcc436"
     stroke-width="2.65071"
     id="path5" />
</svg>
