<svg class="animated" id="freepik_stories-windy-day" xmlns="http://www.w3.org/2000/svg" viewBox="0 0 500 500" version="1.1" xmlns:xlink="http://www.w3.org/1999/xlink" xmlns:svgjs="http://svgjs.com/svgjs"><style>svg#freepik_stories-windy-day:not(.animated) .animable {opacity: 0;}svg#freepik_stories-windy-day.animated #freepik--Leaves--inject-6 {animation: 6s Infinite  linear floating;animation-delay: 0s;}svg#freepik_stories-windy-day.animated #freepik--Wind--inject-6 {animation: 6s Infinite  linear shake;animation-delay: 0s;}            @keyframes floating {                0% {                    opacity: 1;                    transform: translateY(0px);                }                50% {                    transform: translateY(-10px);                }                100% {                    opacity: 1;                    transform: translateY(0px);                }            }                    @keyframes shake {                10%, 90% {                    transform: translate3d(-1px, 0, 0);                  }                  20%, 80% {                    transform: translate3d(2px, 0, 0);                  }                  30%, 50%, 70% {                    transform: translate3d(-4px, 0, 0);                  }                  40%, 60% {                    transform: translate3d(4px, 0, 0);                  }            }        </style><g id="freepik--Shadow--inject-6" class="animable" style="transform-origin: 250px 415.69px;"><ellipse id="freepik--path--inject-6" cx="250" cy="415.69" rx="193.89" ry="11.32" style="fill: rgb(245, 245, 245); transform-origin: 250px 415.69px;" class="animable"></ellipse></g><g id="freepik--Leaves--inject-6" class="animable" style="transform-origin: 344.739px 194.222px;"><path d="M443.64,267.48c-.11.15-.24.31-.39.49l-.24.27c-.17.2-.36.4-.57.62l-.34.33-.43.41-.46.41-.5.42-.49.39c-.19.15-.39.3-.61.45l-.58.4-.63.4c-.21.13-.43.25-.65.37s-.45.26-.68.37l-.68.31-.72.3a2.54,2.54,0,0,0-.41-.52,2,2,0,0,0-2.77-.24,1.68,1.68,0,0,0-.36,1.58,9.87,9.87,0,0,1-1.22,0l-.33,0-.38,0a3.31,3.31,0,0,1-.55-.07,2.57,2.57,0,0,1-.4-.08,5.6,5.6,0,0,1-.59-.12l-.65-.2c-.23-.08-.46-.16-.7-.26a12.7,12.7,0,0,1-2.46-1.38q-.62-.45-1.23-1a19.29,19.29,0,0,1-2-2.15c-.26-.32-.53-.66-.79-1a2.09,2.09,0,0,1,.27-3.14,9,9,0,0,1,1.4-1,11.12,11.12,0,0,1,5.23.52c2.83.93,5.39,2.58,8.23,3.48,2.46.77,5.38.88,7.51-.46A1.16,1.16,0,0,1,443.64,267.48Z" style="fill: rgb(64, 123, 255); transform-origin: 431.941px 268.995px;" id="eldby7gvvewvv" class="animable"></path><path d="M422.24,267.71l-4.65,0c-1.15-.38-.9-1.58,0-1.6C419,266.83,422.17,266.76,422.24,267.71Z" style="fill: rgb(64, 123, 255); transform-origin: 419.529px 266.91px;" id="elkqs1jggife" class="animable"></path><g id="elk2v12wfj6v"><path d="M443.64,267.48c-.11.15-.24.31-.39.49l-.24.27c-.17.2-.36.4-.57.62l-.34.33-.43.41-.46.41-.5.42-.49.39c-.19.15-.39.3-.61.45l-.58.4-.63.4c-.21.13-.43.25-.65.37s-.45.26-.68.37l-.68.31-.72.3a2.54,2.54,0,0,0-.41-.52,2,2,0,0,0-2.77-.24,1.68,1.68,0,0,0-.36,1.58,9.87,9.87,0,0,1-1.22,0l-.33,0-.38,0a3.31,3.31,0,0,1-.55-.07,2.57,2.57,0,0,1-.4-.08,5.6,5.6,0,0,1-.59-.12l-.65-.2c-.23-.08-.46-.16-.7-.26a12.7,12.7,0,0,1-2.46-1.38q-.62-.45-1.23-1a18.41,18.41,0,0,1-2-2.15c-.26-.32-.53-.66-.79-1a2.09,2.09,0,0,1,.27-3.14,9,9,0,0,1,1.4-1,11.12,11.12,0,0,1,5.23.52c2.83.93,5.39,2.58,8.23,3.48,2.46.77,5.38.88,7.51-.46A1.16,1.16,0,0,1,443.64,267.48Z" style="fill: rgb(255, 255, 255); opacity: 0.2; transform-origin: 431.941px 268.995px;" class="animable"></path></g><path d="M337.42,288.44h.2a7.09,7.09,0,0,0,4.31,3.87c2.14.82,4.47,1,6.63,1.83a8.67,8.67,0,0,1,3.4,2.19,6.74,6.74,0,0,1,.37,1.28,1.62,1.62,0,0,1-1.34,2C339.15,302.94,337.32,291.37,337.42,288.44Z" style="fill: rgb(64, 123, 255); transform-origin: 344.898px 294.323px;" id="elvkowqe41aso" class="animable"></path><path d="M350.22,298.81l2.83,2.2c.87.32,1.29-.52.77-.95C352.6,299.83,350.72,298.27,350.22,298.81Z" style="fill: rgb(64, 123, 255); transform-origin: 352.134px 299.889px;" id="eld4hfom0vt5t" class="animable"></path><g id="el0qk35xv5loaf"><path d="M337.42,288.44h.2a7.09,7.09,0,0,0,4.31,3.87c2.14.82,4.47,1,6.63,1.83a8.67,8.67,0,0,1,3.4,2.19,6.74,6.74,0,0,1,.37,1.28,1.62,1.62,0,0,1-1.34,2C339.15,302.94,337.32,291.37,337.42,288.44Z" style="fill: rgb(255, 255, 255); opacity: 0.2; transform-origin: 344.898px 294.323px;" class="animable"></path></g><path d="M249.14,123.44l.15-.12a7.11,7.11,0,0,1,.85-5.7c1.13-2,2.78-3.63,3.93-5.6a8.46,8.46,0,0,0,1.22-3.84,6.69,6.69,0,0,0-.52-1.21,1.61,1.61,0,0,0-2.31-.7C241.28,111.23,247.21,121.26,249.14,123.44Z" style="fill: rgb(64, 123, 255); transform-origin: 250.564px 114.735px;" id="el0ogtu52pme8" class="animable"></path><path d="M252.38,107.39l.78-3.48c.47-.8,1.33-.42,1.2.24C253.56,105.1,253.11,107.48,252.38,107.39Z" style="fill: rgb(64, 123, 255); transform-origin: 253.377px 105.426px;" id="elllguysst1a" class="animable"></path><g id="el99cvg80m07q"><path d="M249.14,123.44l.15-.12a7.11,7.11,0,0,1,.85-5.7c1.13-2,2.78-3.63,3.93-5.6a8.46,8.46,0,0,0,1.22-3.84,6.69,6.69,0,0,0-.52-1.21,1.61,1.61,0,0,0-2.31-.7C241.28,111.23,247.21,121.26,249.14,123.44Z" style="fill: rgb(255, 255, 255); opacity: 0.2; transform-origin: 250.564px 114.735px;" class="animable"></path></g><path d="M397.18,247l.14.07a5.53,5.53,0,0,1,4.29-1.4c1.79.09,3.52.67,5.3.78A6.6,6.6,0,0,0,410,246a4.73,4.73,0,0,0,.67-.79,1.26,1.26,0,0,0-.32-1.86C403,237.26,398,244.93,397.18,247Z" style="fill: rgb(64, 123, 255); transform-origin: 404.064px 244.057px;" id="elasqjjlidvz" class="animable"></path><path d="M409.57,243.69l2.71-.68c.72.05.76.78.25.93C411.59,243.71,409.76,244.23,409.57,243.69Z" style="fill: rgb(64, 123, 255); transform-origin: 411.221px 243.478px;" id="elvspfmx96did" class="animable"></path><g id="ellwpk4d5mmc"><path d="M397.18,247l.14.07a5.53,5.53,0,0,1,4.29-1.4c1.79.09,3.52.67,5.3.78A6.6,6.6,0,0,0,410,246a4.73,4.73,0,0,0,.67-.79,1.26,1.26,0,0,0-.32-1.86C403,237.26,398,244.93,397.18,247Z" style="fill: rgb(255, 255, 255); opacity: 0.2; transform-origin: 404.064px 244.057px;" class="animable"></path></g><path d="M396.16,156.91l.14.07a5.56,5.56,0,0,1,4.3-1.4c1.78.09,3.51.67,5.3.78a6.56,6.56,0,0,0,3.11-.49,5.17,5.17,0,0,0,.67-.79,1.26,1.26,0,0,0-.32-1.86C402,147.13,397,154.8,396.16,156.91Z" style="fill: rgb(64, 123, 255); transform-origin: 403.059px 153.948px;" id="elgr7cxkscxuc" class="animable"></path><path d="M408.55,153.56l2.71-.68c.73.05.76.78.25.93" style="fill: rgb(64, 123, 255); transform-origin: 410.203px 153.345px;" id="elnspkj5vua6i" class="animable"></path><g id="el42ioiu0dueh"><path d="M396.16,156.91l.14.07a5.56,5.56,0,0,1,4.3-1.4c1.78.09,3.51.67,5.3.78a6.56,6.56,0,0,0,3.11-.49,5.17,5.17,0,0,0,.67-.79,1.26,1.26,0,0,0-.32-1.86C402,147.13,397,154.8,396.16,156.91Z" style="fill: rgb(255, 255, 255); opacity: 0.2; transform-origin: 403.059px 153.948px;" class="animable"></path></g><path d="M284.49,97.18l-.2.06a7.34,7.34,0,0,0-5.3-2.86c-2.36-.3-4.77,0-7.13-.23a8.7,8.7,0,0,1-4-1.38,6.57,6.57,0,0,1-.68-1.19,1.68,1.68,0,0,1,.86-2.37C279.2,83,283.88,94.2,284.49,97.18Z" style="fill: rgb(64, 123, 255); transform-origin: 275.732px 92.3018px;" id="elyksbe1fn8gq" class="animable"></path><path d="M269,89.85l-3.4-1.53c-1-.11-1.18.84-.55,1.15C266.38,89.4,268.66,90.51,269,89.85Z" style="fill: rgb(64, 123, 255); transform-origin: 266.842px 89.1858px;" id="eld2218j473y" class="animable"></path><g id="elovlaj50d2oj"><path d="M284.49,97.18l-.2.06a7.34,7.34,0,0,0-5.3-2.86c-2.36-.3-4.77,0-7.13-.23a8.7,8.7,0,0,1-4-1.38,6.57,6.57,0,0,1-.68-1.19,1.68,1.68,0,0,1,.86-2.37C279.2,83,283.88,94.2,284.49,97.18Z" style="fill: rgb(255, 255, 255); opacity: 0.2; transform-origin: 275.732px 92.3018px;" class="animable"></path></g></g><g id="freepik--Wind--inject-6" class="animable" style="transform-origin: 253.605px 226.978px;"><path d="M298,328.65c-6.31,0-12.21-1.12-16.68-5.55-2.93-2.9-4.71-6.69-6.43-10.34a50.4,50.4,0,0,0-4-7.42c-6.13-8.79-18.53-13.4-31.62-11.75a67.09,67.09,0,0,0-18.73,5.57l-.4-.92a67.92,67.92,0,0,1,19-5.64c13.44-1.69,26.23,3.08,32.56,12.17a51.54,51.54,0,0,1,4.08,7.56c1.76,3.75,3.43,7.28,6.23,10.06,6.47,6.41,16.37,5.52,25.94,4.66,1.33-.12,2.65-.24,3.95-.34,18.36-1.38,43.62-9.57,69.31-22.46,22.89-11.5,38.3-22.75,40-27l.93.37c-4,10.2-67.54,46.87-110.13,50.08l-3.93.33C304.73,328.35,301.33,328.65,298,328.65Z" style="fill: rgb(64, 123, 255); transform-origin: 321.14px 302.95px;" id="elwaes4wfp67k" class="animable"></path><path d="M206.09,306.4l-.47-.88c2.65-1.41,5-2.68,7.52-3.93l.45.89C211.12,303.73,208.73,305,206.09,306.4Z" style="fill: rgb(64, 123, 255); transform-origin: 209.605px 303.995px;" id="elshdwym9kt4c" class="animable"></path><path d="M151.24,153c-4.87,0-9.62-1.08-13.13-4.56-2.19-2.17-3.52-5-4.8-7.72a37.22,37.22,0,0,0-3-5.49c-4.52-6.49-13.69-9.9-23.36-8.68-8.87,1.12-17.25,5.58-24.65,9.5l-.46-.88c7.47-4,15.94-8.47,25-9.61,10-1.27,19.58,2.3,24.31,9.1a37,37,0,0,1,3.05,5.63c1.3,2.78,2.54,5.39,4.61,7.44,5.57,5.53,14.7,4.61,22,3.18a247.67,247.67,0,0,0,64.69-22.13l.45.89a248.82,248.82,0,0,1-64.95,22.23A52.89,52.89,0,0,1,151.24,153Z" style="fill: rgb(64, 123, 255); transform-origin: 153.895px 139.153px;" id="elyok9mojxz4d" class="animable"></path><path d="M372.4,293.25l-.38-.92c16.69-6.91,39.34-19.93,52.48-42.74l.87.5C412.09,273.14,389.24,286.29,372.4,293.25Z" style="fill: rgb(64, 123, 255); transform-origin: 398.695px 271.42px;" id="elwlwxil1964" class="animable"></path><path d="M178.74,159.89l-.23-1a221.61,221.61,0,0,0,67.86-28.52l.53.84A222.65,222.65,0,0,1,178.74,159.89Z" style="fill: rgb(64, 123, 255); transform-origin: 212.705px 145.13px;" id="elo64q1hizqy" class="animable"></path><path d="M204.15,164.8l-.16-1a97.33,97.33,0,0,0,39-15.62l.56.83A98.25,98.25,0,0,1,204.15,164.8Z" style="fill: rgb(64, 123, 255); transform-origin: 223.77px 156.49px;" id="el7xv5qyempje" class="animable"></path></g><g id="freepik--Character--inject-6" class="animable" style="transform-origin: 165.374px 291.848px;"><path d="M107.81,195.25a6.79,6.79,0,0,0,4.86,1.78c2.37-.11,2.82-2.4,1.53-4.25-1.15-1.65-3.78-3.6-5.86-2.59S106.2,193.74,107.81,195.25Z" style="fill: rgb(127, 62, 59); transform-origin: 110.795px 193.474px;" id="eln7i0ptya3ll" class="animable"></path><path d="M165,228.16l8.25-1.56,5.88-4.42a2.57,2.57,0,0,0,1-2.1l0-1.59a2.61,2.61,0,0,0-2.88-2.55l-2.54.26a2.6,2.6,0,0,0-2,1.32l-2.59,4.71-7.21.68Z" style="fill: rgb(127, 62, 59); transform-origin: 171.52px 222.043px;" id="elvgolq739ble" class="animable"></path><path d="M132.62,210.14c-1.23,2.94,0,6.45,2.14,8.8s13.19,9.73,17.09,10.25c3.7.5,13.19-.62,12.78-.57-.8.11,4-.41,4.83-.54-.49-2-1-4.21-1.52-6.18-4.16.06-10.71-.09-14.78-1,0,0-9.3-9.61-15.23-12.42a5.51,5.51,0,0,0-2.84-.72C134.11,207.87,133,209.23,132.62,210.14Z" style="fill: rgb(38, 50, 56); transform-origin: 150.796px 218.539px;" id="eliw2dgw69jce" class="animable"></path><g id="eltik09ve4t7"><path d="M132.62,210.14c-1.23,2.94,0,6.45,2.14,8.8s13.19,9.73,17.09,10.25c3.7.5,13.19-.62,12.78-.57-.8.11,4-.41,4.83-.54-.49-2-1-4.21-1.52-6.18-4.16.06-10.71-.09-14.78-1,0,0-9.3-9.61-15.23-12.42a5.51,5.51,0,0,0-2.84-.72C134.11,207.87,133,209.23,132.62,210.14Z" style="opacity: 0.1; transform-origin: 150.796px 218.539px;" class="animable"></path></g><path d="M112.84,195c1.79,4.36,4.23,12,2.78,16.63a2.45,2.45,0,0,0,1.11,2.87,17,17,0,0,0,11.9,2.51c5.31-.84,5.12-3.73,3.66-5.72a2.4,2.4,0,0,0-1.66-1c-5.29-.63-6.49-4.91-6.29-8.89Z" style="fill: rgb(127, 62, 59); transform-origin: 123.008px 206.111px;" id="el3svycosqsox" class="animable"></path><g id="eloa29blnobkj"><path d="M117.53,197.65l6.81,3.78a17.69,17.69,0,0,0,.15,2.91,8.14,8.14,0,0,1-6.79-3.41C116.85,199.58,117,197.93,117.53,197.65Z" style="opacity: 0.2; isolation: isolate; transform-origin: 120.794px 200.996px;" class="animable"></path></g><path d="M109.44,188c2.27,6.74,3.26,10.79,7.69,13.37,6.65,3.9,14.29-1.53,14.08-8.79-.2-6.57-3.89-16.45-11.36-17.37A9.67,9.67,0,0,0,109.44,188Z" style="fill: rgb(127, 62, 59); transform-origin: 120.054px 188.898px;" id="elztoete4xbr" class="animable"></path><path d="M128.8,185.3c.15.6,0,1.14-.42,1.24s-.81-.3-1-.88,0-1.13.43-1.23S128.65,184.72,128.8,185.3Z" style="fill: rgb(38, 50, 56); transform-origin: 128.082px 185.485px;" id="el7lcy9b8gxrr" class="animable"></path><path d="M126,187.92a14.63,14.63,0,0,0,3.17,2.29,2.3,2.3,0,0,1-1.58,1.12Z" style="fill: rgb(99, 15, 15); transform-origin: 127.585px 189.625px;" id="el70ur002j0hq" class="animable"></path><path d="M125,181.22a.35.35,0,0,1,.33,0,2.7,2.7,0,0,0,2.42.3.35.35,0,0,1,.45.17.34.34,0,0,1-.17.45,3.39,3.39,0,0,1-3.09-.34.33.33,0,0,1-.11-.46h0A.29.29,0,0,1,125,181.22Z" style="fill: rgb(38, 50, 56); transform-origin: 126.505px 181.772px;" id="elm3c9hp5avg" class="animable"></path><path d="M121.17,182.83a.33.33,0,0,0-.24.22,2.7,2.7,0,0,1-1.69,1.75.34.34,0,0,0,.16.66,3.4,3.4,0,0,0,2.19-2.21.32.32,0,0,0-.19-.42h0A.28.28,0,0,0,121.17,182.83Z" style="fill: rgb(38, 50, 56); transform-origin: 120.305px 184.136px;" id="el8mqe4cz51nx" class="animable"></path><polygon points="204.85 389.81 213.06 404.53 220.25 400.71 211.93 384.83 204.85 389.81" style="fill: rgb(127, 62, 59); transform-origin: 212.55px 394.68px;" id="elwy39stpqedj" class="animable"></polygon><path d="M149.24,266.64s30,42.16,38.84,68.42L216,390l-9.36,5.36S188,374.5,182.81,364.65c-2.56-4.88-6.47-15.33-9.27-20.06-7.18-12.16-25.95-33.19-33.34-45.2-2.7-4.39-9.32-18.45-9.32-18.45Z" style="fill: rgb(64, 123, 255); transform-origin: 173.44px 331px;" id="elcupcuvm02gl" class="animable"></path><g id="eli6yz87yngmq"><path d="M149.24,266.64s30,42.16,38.84,68.42L216,390l-9.36,5.36S188,374.5,182.81,364.65c-2.56-4.88-6.47-15.33-9.27-20.06-7.18-12.16-25.95-33.19-33.34-45.2-2.7-4.39-9.32-18.45-9.32-18.45Z" style="opacity: 0.1; transform-origin: 173.44px 331px;" class="animable"></path></g><polygon points="203.03 393.31 205.79 397.38 218.4 390.52 216.35 386.31 203.03 393.31" style="fill: rgb(64, 123, 255); transform-origin: 210.715px 391.845px;" id="el8n779qyudl" class="animable"></polygon><g id="el1l8g7dhryc8"><polygon points="203.03 393.31 205.79 397.38 218.4 390.52 216.35 386.31 203.03 393.31" style="fill: rgb(255, 255, 255); opacity: 0.5; transform-origin: 210.715px 391.845px;" class="animable"></polygon></g><path d="M221.26,400.68a.19.19,0,0,1-.2-.08.18.18,0,0,1,0-.22c.07-.12,1.83-2.84,3.15-3.07a1,1,0,0,1,.72.16.8.8,0,0,1,.36.78c-.11.54-.93,1.16-1.8,1.59A12.47,12.47,0,0,1,221.26,400.68Zm.43-.5c1.38-.47,3.13-1.36,3.24-2,0-.08,0-.21-.21-.37a.47.47,0,0,0-.44-.09,1,1,0,0,0-.34.11A8.45,8.45,0,0,0,221.69,400.18Z" style="fill: rgb(64, 123, 255); transform-origin: 223.16px 398.991px;" id="elok7u06qv5k" class="animable"></path><path d="M221.17,400.72a.2.2,0,0,1-.15-.13c0-.1-.77-2.23-.23-3.46a1.33,1.33,0,0,1,.78-.76c.48-.18.73,0,.84.2.54.77-.4,3.24-1.06,4.06,0,0,0,0-.06,0A.21.21,0,0,1,221.17,400.72Zm.44-4a.94.94,0,0,0-.47.51,5,5,0,0,0,.12,2.78c.62-1,1.14-2.81.86-3.31,0,0-.11-.16-.42,0l-.09.06Z" style="fill: rgb(64, 123, 255); transform-origin: 221.584px 398.508px;" id="el1crpxbvomz1" class="animable"></path><path d="M220,399.74l-7.62,3.78a.73.73,0,0,0-.37.81l1.65,7.4a1.17,1.17,0,0,0,1.37.94.81.81,0,0,0,.22-.07c2.73-1.42,5.1-2.79,8.53-4.48,4-2,3.25-1,8-3.25,2.88-1.37,1.82-5.15.53-4.72-5.9,2-7.29.46-10.41-.63A2.59,2.59,0,0,0,220,399.74Z" style="fill: rgb(38, 50, 56); transform-origin: 222.803px 406.061px;" id="eliqru4angpsn" class="animable"></path><g id="el4gmlb4e8frr"><path d="M158.27,318.41c-4.93-18.39-8.07-32.2-8.07-32.2l-8.45,8.9C146.15,301.25,152.72,311.31,158.27,318.41Z" style="opacity: 0.2; transform-origin: 150.01px 302.31px;" class="animable"></path></g><polygon points="190 395.97 198.21 410.68 205.4 406.86 197.08 390.98 190 395.97" style="fill: rgb(127, 62, 59); transform-origin: 197.7px 400.83px;" id="el1wwats8ni4h" class="animable"></polygon><path d="M137.43,275.86s27.4,48.7,35.8,65.36c7.68,15.25,27.94,55,27.94,55l-9.36,5.36S173.14,380.66,168,370.81c-2.56-4.89-6.47-15.33-9.27-20.07-7.18-12.16-24.14-34.51-33.34-45.2-6.62-7.68-10.7-24-10.7-24Z" style="fill: rgb(64, 123, 255); transform-origin: 157.93px 338.72px;" id="el2wtwfsx94qm" class="animable"></path><polygon points="188.18 399.46 190.94 403.54 203.55 396.67 201.51 392.47 188.18 399.46" style="fill: rgb(64, 123, 255); transform-origin: 195.865px 398.005px;" id="el6iokhh12i9" class="animable"></polygon><g id="elcu33py6onpo"><polygon points="188.18 399.46 190.94 403.54 203.55 396.67 201.51 392.47 188.18 399.46" style="fill: rgb(255, 255, 255); opacity: 0.5; transform-origin: 195.865px 398.005px;" class="animable"></polygon></g><path d="M206.41,406.84a.23.23,0,0,1-.2-.08.2.2,0,0,1,0-.23c.07-.12,1.83-2.83,3.16-3.06a.91.91,0,0,1,.71.16.77.77,0,0,1,.36.77c-.11.55-.93,1.16-1.79,1.59A12.9,12.9,0,0,1,206.41,406.84Zm.43-.51c1.38-.47,3.13-1.35,3.24-2,0-.09,0-.22-.21-.38a.5.5,0,0,0-.44-.09,1.35,1.35,0,0,0-.34.11A8.73,8.73,0,0,0,206.84,406.33Z" style="fill: rgb(64, 123, 255); transform-origin: 208.311px 405.147px;" id="elfxtdd6pfhw" class="animable"></path><path d="M206.32,406.87a.2.2,0,0,1-.15-.12c0-.1-.77-2.24-.23-3.47a1.36,1.36,0,0,1,.78-.76c.48-.18.73,0,.84.2.54.78-.4,3.25-1.06,4.06a.08.08,0,0,1-.06,0A.21.21,0,0,1,206.32,406.87Zm.44-3.95a1,1,0,0,0-.47.5,5.06,5.06,0,0,0,.12,2.78c.62-1,1.14-2.81.86-3.3,0,0-.11-.16-.42,0l-.09.05Z" style="fill: rgb(64, 123, 255); transform-origin: 206.734px 404.658px;" id="elj37w2a823a" class="animable"></path><path d="M205.11,405.9l-7.62,3.77a.74.74,0,0,0-.37.82l1.65,7.39a1.19,1.19,0,0,0,1.37.95l.22-.08c2.73-1.41,5.1-2.79,8.53-4.48,4-2,3.25-1,8-3.24,2.88-1.38,1.82-5.16.53-4.73-5.9,2-7.29.47-10.41-.62A2.5,2.5,0,0,0,205.11,405.9Z" style="fill: rgb(38, 50, 56); transform-origin: 207.913px 412.216px;" id="el5f86xkl2gvd" class="animable"></path><path d="M113.8,269.73s-.7,10.82,3.57,20.53,28.35,3.68,29.4,3.59l1.34-3c3.36-7.51,3.23-15.88.87-23.77Z" style="fill: rgb(64, 123, 255); transform-origin: 132.228px 281.431px;" id="elatligzakq0u" class="animable"></path><path d="M98.73,218.14,107.48,241a63,63,0,0,1,3.09,11l3.25,17.68,35.42-3.08L141.06,213c-.23-2.75-4.53-5.76-7.15-4.9l-32,4C99.85,212.78,98.24,216,98.73,218.14Z" style="fill: rgb(38, 50, 56); transform-origin: 123.941px 238.815px;" id="eljl2x7o583sj" class="animable"></path><path d="M97.79,220.32A36.72,36.72,0,0,0,104,248.61c-3.33,9.53-.58,21.06,7.56,27-.31,1.66-.27,3.8.88,5a208.28,208.28,0,0,0,40.52-7.73,10.65,10.65,0,0,0,1.29-.69c-1.07-1.06-1.9-2.26-3-3.33,3.92-7.9,2.27-17.91-4.31-23.79,3.56-12,0-26.18-8.62-35.29a6.71,6.71,0,0,0-6.14-2,147.36,147.36,0,0,1-21.6,2.54c-3.16.14-6.45.2-9.23,1.69s-4.79,5-3.51,7.86C97.49,219.37,97.79,220.32,97.79,220.32Z" style="fill: rgb(38, 50, 56); transform-origin: 125.692px 244.136px;" id="elfiq08e691pb" class="animable"></path><g id="eloun7leiq4lg"><path d="M121.65,209.73c13.08,35.49,2.63,44.06,12.87,62.61a8.87,8.87,0,0,1,4.12-.82,36.62,36.62,0,0,1-5.48-21.24c.57-13.6-3-27.88-7.86-40.58C124.55,210.42,122.67,209.91,121.65,209.73Z" style="opacity: 0.1; transform-origin: 130.145px 241.02px;" class="animable"></path></g><path d="M119.44,187.56a.21.21,0,0,0-.13.27h0a.24.24,0,0,0,.29.11c1.7-.7,2.17-.86,3.75.09a.22.22,0,0,0,.3,0,.23.23,0,0,0-.05-.3C122.06,186.3,119.78,187.43,119.44,187.56Z" style="fill: rgb(38, 50, 56); transform-origin: 121.491px 187.551px;" id="elo4whshgp4pc" class="animable"></path><path d="M131.34,169.46a4.08,4.08,0,0,0,1.23-1.65,2,2,0,0,0-.3-1.95,2.55,2.55,0,0,0-1.94-.68,6.89,6.89,0,0,0-5.24,2.2,1.32,1.32,0,0,0,.21-1.69,2,2,0,0,0-1.58-.84,3.94,3.94,0,0,0-1.81.42,7.19,7.19,0,0,0-4.14,5.56,28.61,28.61,0,0,0-8.2,4.41,12.5,12.5,0,0,0-4.65,7.87,8.08,8.08,0,0,0,3.74,8c.94.52,1.39,1.61,2.46,1.76a11.2,11.2,0,0,0,3.21-.17,2.55,2.55,0,0,0,1.42-.51.92.92,0,0,0,.1-1.34c.89-.44,1.08-2,.89-3a2.35,2.35,0,0,0-2.06-1.86,4.23,4.23,0,0,0,3.14-2.48,1.78,1.78,0,0,0,.21-1.43.84.84,0,0,0-1.2-.46,8.7,8.7,0,0,0,3-.81,3.76,3.76,0,0,0,2.46-2.34,3.14,3.14,0,0,0,2.54.85,10.34,10.34,0,0,0,3-.83,2,2,0,0,0,1-.63.71.71,0,0,0-.2-1,4.18,4.18,0,0,0,4.34-1.44,2.89,2.89,0,0,0,.73-2.6,1.65,1.65,0,0,0-2.21-1.08,2.36,2.36,0,0,0,1-.83,1.21,1.21,0,0,0,0-1.36C132.19,169.19,131.55,169,131.34,169.46Z" style="fill: rgb(38, 50, 56); transform-origin: 119.302px 178.883px;" id="el4hqs124gu5" class="animable"></path><path d="M125.94,194.64c.14.6-.11,1.17-.54,1.26s-.89-.31-1-.91a1,1,0,0,1,.54-1.26C125.36,193.64,125.81,194.05,125.94,194.64Z" style="fill: rgb(38, 50, 56); transform-origin: 125.159px 194.815px;" id="elalh27kubmr8" class="animable"></path><path d="M175.5,233.6c-.51,1.09-3.79,7.33-6.23,7.14s-4.53-1.72-6.55-3.1-4.34-2.7-6.77-2.36c-4,.55-6.17,5.19-10,6.54-3.35,1.18-7-.5-9.9-2.59a33.71,33.71,0,0,1-13.31-22.87,25.8,25.8,0,0,0,3.34-4.44,6.57,6.57,0,0,0,.85-2.28c3.09,5,6.24,10,9.3,15,1.17,1.93,2.42,3.92,4.34,5.11s4.71,1.29,6.21-.41c2.68-3,7.07-4.9,10.75-3.25,2.08.95,3.68,2.7,5.55,4s4.41,2.18,6.42,1.09A15.22,15.22,0,0,0,175.5,233.6Z" style="fill: rgb(64, 123, 255); transform-origin: 149.12px 225.925px;" id="elj4ife148hk" class="animable"></path><g id="el51frse3vw9l"><path d="M175.5,233.6c-.51,1.09-3.79,7.33-6.23,7.14s-4.53-1.72-6.55-3.1-4.34-2.7-6.77-2.36c-4,.55-6.17,5.19-10,6.54-3.35,1.18-7-.5-9.9-2.59a33.71,33.71,0,0,1-13.31-22.87,25.8,25.8,0,0,0,3.34-4.44,6.57,6.57,0,0,0,.85-2.28c3.09,5,6.24,10,9.3,15,1.17,1.93,2.42,3.92,4.34,5.11s4.71,1.29,6.21-.41c2.68-3,7.07-4.9,10.75-3.25,2.08.95,3.68,2.7,5.55,4s4.41,2.18,6.42,1.09A15.22,15.22,0,0,0,175.5,233.6Z" style="fill: rgb(255, 255, 255); opacity: 0.4; transform-origin: 149.12px 225.925px;" class="animable"></path></g><g id="el23kjlcdprhf"><path d="M131.93,217.63c1.56,3.81-8.68,1.92-8.68,1.92l-.5-3.15s0,0,0,0c3.73,1.15,8,.45,8.14-.34C130.93,216,131.93,217.65,131.93,217.63Z" style="opacity: 0.2; isolation: isolate; transform-origin: 127.421px 218.039px;" class="animable"></path></g><path d="M112.72,211.4a7.33,7.33,0,0,0,1.27,1.8,6.5,6.5,0,0,0,2,1.38A27.69,27.69,0,0,0,127.18,217c1.84,0,3.83-.26,5.16-1.52a5.63,5.63,0,0,0,.9-6.21c-.86-2.05-5-5.65-9.22-6.25a4.22,4.22,0,0,0,1.19,2.36c.54.65-.12.86-1.66,1.06-8,1.1-8-2.51-8-2.51-1.36-.24-2.86,1.33-3.13,2-.06.15-.12.3-.16.44A6.65,6.65,0,0,0,112.72,211.4Z" style="fill: rgb(64, 123, 255); transform-origin: 122.88px 210.01px;" id="elv0ns1jzdaa" class="animable"></path><g id="elf76cddtgvyf"><path d="M112.72,211.4a7.33,7.33,0,0,0,1.27,1.8,6.5,6.5,0,0,0,2,1.38A27.69,27.69,0,0,0,127.18,217c1.84,0,3.83-.26,5.16-1.52a5.63,5.63,0,0,0,.9-6.21c-.86-2.05-5-5.65-9.22-6.25a4.22,4.22,0,0,0,1.19,2.36c.54.65-.12.86-1.66,1.06-8,1.1-8-2.51-8-2.51-1.36-.24-2.86,1.33-3.13,2-.06.15-.12.3-.16.44A6.65,6.65,0,0,0,112.72,211.4Z" style="fill: rgb(255, 255, 255); opacity: 0.4; transform-origin: 122.88px 210.01px;" class="animable"></path></g><path d="M168.44,231.46c1.33-.87,2.67-3.06,2.46-4.63a1.1,1.1,0,0,1,1.27,0,6.28,6.28,0,0,1-1.16,3.32,5.51,5.51,0,0,0,2.34-3,7,7,0,0,1,3.59,1.77c-.48.9-1.14,2-1.62,2.94a4.46,4.46,0,0,0,2.09-2.25c.05.33.51,1,.84.94-.91,1-1.91,2.15-2.82,3.19C173.14,233.61,170.05,233.1,168.44,231.46Z" style="fill: rgb(64, 123, 255); transform-origin: 173.345px 230.184px;" id="elfjt123n2ce" class="animable"></path><path d="M154.74,229.14l8.83-.91,6.58-4.12a2.74,2.74,0,0,0,1.27-2.12l.12-1.68a2.76,2.76,0,0,0-2.8-2.94l-2.7,0a2.73,2.73,0,0,0-2.23,1.21l-3.15,4.72-7.64.07Z" style="fill: rgb(127, 62, 59); transform-origin: 162.283px 223.255px;" id="elu3k7u73do5n" class="animable"></path><path d="M100.11,213.73a6.19,6.19,0,0,1,7.24-1.51c6.06,2.83,17.1,7.77,22,8.7,6.8,1.29,27.89,1,27.89,1l.3,8.27s-23.17,2.75-30.86,1.9c-5.5-.61-16.8-5.28-24.41-8.65a6.19,6.19,0,0,1-2.16-9.75Z" style="fill: rgb(38, 50, 56); transform-origin: 128.056px 221.949px;" id="el3dgi2qqykgd" class="animable"></path><g id="el3ow5mil46dd"><path d="M100.11,213.73a6.19,6.19,0,0,1,7.24-1.51c6.06,2.83,17.1,7.77,22,8.7,6.8,1.29,27.89,1,27.89,1l.3,8.27s-23.17,2.75-30.86,1.9c-5.5-.61-16.8-5.28-24.41-8.65a6.19,6.19,0,0,1-2.16-9.75Z" style="fill: rgb(255, 255, 255); opacity: 0.1; transform-origin: 128.056px 221.949px;" class="animable"></path></g><g id="elg5stc0es5kg"><path d="M124.27,248.27l-15.56,1.22A22.19,22.19,0,0,1,124.27,248.27Z" style="opacity: 0.1; transform-origin: 116.49px 248.444px;" class="animable"></path></g><g id="elysm3wmr728"><path d="M136.14,247.44,144,246a7.52,7.52,0,0,0-8,1.47" style="opacity: 0.1; transform-origin: 140px 246.453px;" class="animable"></path></g><g id="elsugj79yswai"><path d="M154.2,272.25a9.42,9.42,0,0,1-1.29.69,208.14,208.14,0,0,1-40.52,7.73c-1.14-1.21-1.18-3.3-.89-4.93A359.32,359.32,0,0,0,151.26,269C152.32,270,153.14,271.2,154.2,272.25Z" style="opacity: 0.1; transform-origin: 132.774px 274.835px;" class="animable"></path></g></g><g id="freepik--Umbrella--inject-6" class="animable" style="transform-origin: 265.005px 187.416px;"><path d="M299.15,262.32c9.43-3.27,19.85-5.7,29.82-5.39,3.65-16.87,15.57-33,30.31-42-11.85-25.67-16.3-54.3-14.67-82.52A69.58,69.58,0,0,1,293.88,113c-6.55,8.72-17.67,15.84-26.82,21.77-3,21.8-14.13,39.91-22.63,59.77,10.24,10.71,27,26.5,38.11,40.74S299.25,262.17,299.15,262.32Z" style="fill: rgb(64, 123, 255); transform-origin: 301.855px 187.66px;" id="elqj9a8e1m6i" class="animable"></path><g id="elm34uutgdej"><rect x="221.36" y="153.59" width="96.63" height="1" style="fill: rgb(38, 50, 56); transform-origin: 269.675px 154.09px; transform: rotate(-58.78deg);" class="animable"></rect></g><g id="el0k3utg3f4zno"><rect x="235.67" y="163.45" width="119.43" height="1" style="fill: rgb(38, 50, 56); transform-origin: 295.385px 163.95px; transform: rotate(-31.78deg);" class="animable"></rect></g><g id="elsb5q7a88nq"><rect x="302.62" y="145.86" width="1" height="118.62" style="fill: rgb(38, 50, 56); transform-origin: 303.12px 205.17px; transform: rotate(-80.52deg);" class="animable"></rect></g><g id="ele9f0evw72lv"><rect x="286.96" y="173.78" width="1" height="106.49" style="fill: rgb(38, 50, 56); transform-origin: 287.46px 227.025px; transform: rotate(-53.56deg);" class="animable"></rect></g><g id="el7d1ry65oq9n"><rect x="185.11" y="200.9" width="60.22" height="2" style="fill: rgb(38, 50, 56); transform-origin: 215.22px 201.9px; transform: rotate(-12.46deg);" class="animable"></rect></g><path d="M177,225.92a8.68,8.68,0,0,1-1.91-17.15l18.67-4.17a2,2,0,0,1,.88,3.91l-18.68,4.17a4.68,4.68,0,0,0,2.05,9.13l.8-.18a2,2,0,0,1,.87,3.91l-.81.18A8.62,8.62,0,0,1,177,225.92Z" style="fill: rgb(64, 123, 255); transform-origin: 182.256px 215.236px;" id="elpjcf0ej46" class="animable"></path><g id="elqhou30idpqe"><path d="M344.62,132.43c0,.36,0,.7-.06,1L245,195.15l-.16-.17,49.48-81.57A69.46,69.46,0,0,0,344.62,132.43Z" style="opacity: 0.1; transform-origin: 294.73px 154.28px;" class="animable"></path></g><g id="elkzefpou60ck"><path d="M294.36,113.41,244.88,195c-.15-.15-.3-.32-.45-.48,8.5-19.85,22-41.55,22.63-59.76,9.14-5.93,20.27-13.05,26.82-21.77C294,113.12,294.2,113.27,294.36,113.41Z" style="opacity: 0.2; transform-origin: 269.395px 153.995px;" class="animable"></path></g><g id="eltzzvgi412p"><path d="M359.28,215c-14.74,9-26.65,25.1-30.31,42h-1.05L246.75,197l-1.35-1.44,113.68,19C359.14,214.66,359.21,214.8,359.28,215Z" style="opacity: 0.1; transform-origin: 302.34px 226.28px;" class="animable"></path></g><path d="M359.08,214.51l-113.68-19-.36-.38,99.52-61.67C343.1,161.2,347.53,189.27,359.08,214.51Z" style="fill: none; transform-origin: 302.06px 173.985px;" id="eltl8nltqsh2" class="animable"></path><g id="el5n3kb8vm76c"><path d="M327.92,256.91c-9.66-.12-19.68,2.26-28.76,5.41.09-.15-5.51-12.88-16.62-27.07C272.2,222,256.7,207.72,246.75,197Z" style="opacity: 0.2; transform-origin: 287.335px 229.66px;" class="animable"></path></g></g><defs>     <filter id="active" height="200%">         <feMorphology in="SourceAlpha" result="DILATED" operator="dilate" radius="2"></feMorphology>                <feFlood flood-color="#32DFEC" flood-opacity="1" result="PINK"></feFlood>        <feComposite in="PINK" in2="DILATED" operator="in" result="OUTLINE"></feComposite>        <feMerge>            <feMergeNode in="OUTLINE"></feMergeNode>            <feMergeNode in="SourceGraphic"></feMergeNode>        </feMerge>    </filter>    <filter id="hover" height="200%">        <feMorphology in="SourceAlpha" result="DILATED" operator="dilate" radius="2"></feMorphology>                <feFlood flood-color="#ff0000" flood-opacity="0.5" result="PINK"></feFlood>        <feComposite in="PINK" in2="DILATED" operator="in" result="OUTLINE"></feComposite>        <feMerge>            <feMergeNode in="OUTLINE"></feMergeNode>            <feMergeNode in="SourceGraphic"></feMergeNode>        </feMerge>            <feColorMatrix type="matrix" values="0   0   0   0   0                0   1   0   0   0                0   0   0   0   0                0   0   0   1   0 "></feColorMatrix>    </filter></defs></svg>